# xmcd
#
# Track frame offsets:
#	150
#	13495
#	26707
#	40727
#	55730
#	69742
#	84197
#	98922
#	113550
#	128892
#	141355
#	154370
#	169357
#	182795
#	197725
#
# Disc length: 2809 seconds
#
# Revision: 0
# Processed by: cddbd v1.5.2PL0 Copyright (c) Steve Scherf et al.
# Submitted via: EasyCDDAExtractor 11.1.0.1
#
DISCID=d40af70f
DTITLE=Various Artist - Classic Nostalgia Collectibles 1942-1965 - Disc 1
DYEAR=1996
DGENRE=Blues
TTITLE0=Louis Jordan - What's The Use Of Getting Sober
TTITLE1=Louis Jordan - I'm Gonna Leave You At The Outskirts Of Town
TTITLE2=The Ink Spots - Don't Get Around Much Anymore
TTITLE3=The Ink Spots - Ev'ry Night About This Time
TTITLE4=Jimmie Lunceford - It Had To Be You
TTITLE5=Andy Kirk And His Twelve Clouds Of Joy - Take It And Git
TTITLE6=Nat King Cole Trio - That Ain't Right
TTITLE7=Lucky Millinder - Sweet Slumber
TTITLE8=Lucky Millinder - Apollo Jump
TTITLE9=Dick Haymes - You'll Never Know
TTITLE10=The Mills Brothers - Paper Doll
TTITLE11=Carlie Barnet - That Old Black Magic
TTITLE12=The Mills Brothers - Till Then
TTITLE13=Lionel Hampton And His Orchestra - Hamp's Boogie Woogie
TTITLE14=The Ink Spots And Ella Fitzgerald - Cow Cow Boogie (Cum-Ti-Yi-Yi-Ay)
EXTD=
EXTT0=
EXTT1=
EXTT2=
EXTT3=
EXTT4=
EXTT5=
EXTT6=
EXTT7=
EXTT8=
EXTT9=
EXTT10=
EXTT11=
EXTT12=
EXTT13=
EXTT14=
PLAYORDER=
